<svg xmlns="http://www.w3.org/2000/svg" width="1280" height="280" viewBox="0 0 1280 280" role="img" aria-label="TPM Role Tracker — Scrapes, filters and scores AI and hardware roles against a">
<defs><linearGradient id="fade" x1="0" y1="0" x2="1" y2="0"><stop offset="0" stop-color="#0891B2" stop-opacity="0"/><stop offset="1" stop-color="#0891B2" stop-opacity=".13"/></linearGradient><pattern id="dots" width="26" height="26" patternUnits="userSpaceOnUse"><circle cx="1.6" cy="1.6" r="1.6" fill="#30363d"/></pattern><clipPath id="card"><rect x="1.5" y="1.5" width="1277" height="277" rx="15"/></clipPath></defs>
<g clip-path="url(#card)">
<rect width="1280" height="280" fill="#0d1117"/>
<rect x="700" width="580" height="280" fill="url(#dots)" opacity="0.45"/>
<rect x="640" width="640" height="280" fill="url(#fade)"/>
<rect width="7" height="280" fill="#0891B2"/>
<g transform="translate(716,0)" opacity="0.95"><line x1="46" y1="222" x2="560" y2="222" stroke="#0891B2" stroke-width="2" stroke-opacity=".35"/><rect x="62" y="170" width="42" height="52" rx="7" fill="#0891B2" fill-opacity=".34"/><rect x="134" y="126" width="42" height="96" rx="7" fill="#0891B2" fill-opacity=".34"/><rect x="206" y="148" width="42" height="74" rx="7" fill="#0891B2" fill-opacity=".34"/><rect x="278" y="84" width="42" height="138" rx="7" fill="#0891B2" fill-opacity=".85"/><rect x="350" y="110" width="42" height="112" rx="7" fill="#0891B2" fill-opacity=".34"/><rect x="422" y="46" width="42" height="176" rx="7" fill="#0891B2" fill-opacity=".85"/><rect x="494" y="72" width="42" height="150" rx="7" fill="#0891B2" fill-opacity=".85"/><circle cx="443" cy="26" r="7" fill="#0891B2"/></g>
</g>
<rect x="1.5" y="1.5" width="1277" height="277" rx="15" fill="none" stroke="#30363d" stroke-width="3"/>
<text x="48" y="84" font-family="ui-monospace,SFMono-Regular,'SF Mono',Menlo,Consolas,monospace" font-size="19" font-weight="600" letter-spacing="2.6" fill="#0891B2">JOB SEARCH AUTOMATION</text>
<text x="46" y="150" font-family="ui-sans-serif,-apple-system,BlinkMacSystemFont,'Segoe UI',Helvetica,Arial,sans-serif" font-size="64" font-weight="700" letter-spacing="-1.2" fill="#f0f6fc">TPM Role Tracker</text>
<text x="48" y="194" font-family="ui-sans-serif,-apple-system,BlinkMacSystemFont,'Segoe UI',Helvetica,Arial,sans-serif" font-size="24" font-weight="400" fill="#8b949e">Scrapes, filters and scores AI and hardware roles against a</text>
<text x="48" y="227" font-family="ui-sans-serif,-apple-system,BlinkMacSystemFont,'Segoe UI',Helvetica,Arial,sans-serif" font-size="24" font-weight="400" fill="#8b949e">100-point rubric.</text>
</svg>